<svg xmlns="http://www.w3.org/2000/svg" viewBox="0 0 48 48" width="48" height="48">
  <defs>
  <linearGradient id="d" x1="17" y1="34" x2="31" y2="12.8" gradientUnits="userSpaceOnUse">
    <stop offset="0%" stop-color="#3FBDEA"/>
    <stop offset="52%" stop-color="#1E7FC4"/>
    <stop offset="100%" stop-color="#1B4C9B"/>
  </linearGradient></defs>
  
  <g transform="translate(0 0) scale(1)">
  <path d="M8.8 8A2 2 0 0 1 10.8 6h26.4A2 2 0 0 1 39.2 8v17.2c0 8.2-6 14.4-15.2 18.4-9.2-4-15.2-10.2-15.2-18.4Z" fill="none" stroke="#1F5FA8" stroke-width="2.4" stroke-linejoin="round"/>
  <path d="M11 9.6A1.4 1.4 0 0 1 12.4 8.2h23.2A1.4 1.4 0 0 1 37 9.6V25c0 7.2-5.2 12.6-13 16.2-7.8-3.6-13-9-13-16.2Z" fill="none" stroke="#1F5FA8" stroke-width="0.9" stroke-linejoin="round" opacity="0.62"/>
  <path d="M24 12.8c0 0 7.4 9 7.4 14.4a7.4 7.4 0 0 1-14.8 0c0-5.4 7.4-14.4 7.4-14.4Z" fill="url(#d)"/>
  <path d="M19.4 30.2a5.4 5.4 0 0 0 3 4" fill="none" stroke="#ffffff" stroke-width="1.5" stroke-linecap="round" opacity="0.6"/></g>
</svg>